<svg width="33" height="33" viewBox="0 0 33 33" fill="none" xmlns="http://www.w3.org/2000/svg">
<circle cx="16.5" cy="16.5" r="16.5" fill="url(#paint0_linear_127_5)"/>
<path d="M16.9345 20.7899C16.6473 21.07 16.1818 21.07 15.8946 20.7899L11.2154 16.2246C10.9282 15.9445 10.9282 15.4903 11.2154 15.2101C11.5025 14.93 11.968 14.93 12.2552 15.2101L16.9345 19.7754C17.2216 20.0555 17.2216 20.5097 16.9345 20.7899Z" fill="white"/>
<path d="M21.7846 15.2101C21.4975 14.93 21.032 14.93 20.7448 15.2101L16.0655 19.7754C15.7784 20.0555 15.7784 20.5097 16.0655 20.7899C16.3527 21.07 16.8182 21.07 17.1054 20.7899L21.7846 16.2246C22.0718 15.9445 22.0718 15.4903 21.7846 15.2101Z" fill="white"/>
<defs>
<linearGradient id="paint0_linear_127_5" x1="16.5" y1="0" x2="16.5" y2="33" gradientUnits="userSpaceOnUse">
<stop offset="0.0208333" stop-color="#F3B990"/>
<stop offset="0.427083" stop-color="#FD8837"/>
</linearGradient>
</defs>
</svg>
