<svg width="33" height="33" viewBox="0 0 33 33" fill="none" xmlns="http://www.w3.org/2000/svg">
<circle cx="16.5" cy="16.5" r="16.5" fill="url(#paint0_linear_127_6)"/>
<path d="M16.0655 14.2101C16.3527 13.93 16.8182 13.93 17.1054 14.2101L21.7846 18.7754C22.0718 19.0555 22.0718 19.5097 21.7846 19.7899C21.4975 20.07 21.032 20.07 20.7448 19.7899L16.0655 15.2246C15.7784 14.9445 15.7784 14.4903 16.0655 14.2101Z" fill="#949494"/>
<path d="M11.2154 19.7899C11.5025 20.07 11.9681 20.07 12.2552 19.7899L16.9345 15.2246C17.2216 14.9445 17.2216 14.4903 16.9345 14.2101C16.6473 13.93 16.1818 13.93 15.8946 14.2101L11.2154 18.7754C10.9282 19.0555 10.9282 19.5097 11.2154 19.7899Z" fill="#949494"/>
<defs>
<linearGradient id="paint0_linear_127_6" x1="16.5" y1="0" x2="16.5" y2="33" gradientUnits="userSpaceOnUse">
<stop offset="0.0208333" stop-color="#F1EFEE"/>
<stop offset="0.427083" stop-color="#D3D3D3"/>
</linearGradient>
</defs>
</svg>
