<svg width="40" height="40" viewBox="0 0 40 40" fill="none" xmlns="http://www.w3.org/2000/svg">
<g clip-path="url(#clip0_1_511)">
<path d="M24.6873 20.3125C24.256 20.3125 23.906 20.6625 23.906 21.0938C23.906 21.525 24.256 21.875 24.6873 21.875C25.1185 21.875 25.4685 21.525 25.4685 21.0938C25.4685 20.6625 25.1185 20.3125 24.6873 20.3125Z" fill="#FF7D23"/>
<path d="M0.194607 18.4842C0.196717 18.4866 0.198592 18.4894 0.200779 18.4917L0.201639 18.4928L19.4204 39.7428C19.5636 39.9012 19.7806 40 19.9998 40C20.2184 40 20.435 39.9023 20.5793 39.7428L39.798 18.4928L39.7989 18.4917C39.8011 18.4893 39.8029 18.4866 39.8051 18.4842C39.925 18.3478 39.9935 18.1738 39.999 17.9922C40.0044 17.8107 39.9463 17.6329 39.8348 17.4895C39.8326 17.4867 39.8309 17.4835 39.8287 17.4807L33.5787 9.6682C33.5055 9.57671 33.4126 9.50285 33.307 9.4521C33.2014 9.40135 33.0858 9.375 32.9686 9.375H7.03109C6.91392 9.375 6.79826 9.40135 6.69265 9.45211C6.58705 9.50286 6.49421 9.57671 6.42101 9.6682L0.171014 17.4807C0.168748 17.4835 0.167185 17.4866 0.16492 17.4895C0.0534399 17.6329 -0.0045822 17.8107 0.000836141 17.9922C0.00625448 18.1738 0.0747745 18.3477 0.194607 18.4842ZM15.7546 10.9375H24.245L27.995 17.1875H12.0046L15.7546 10.9375ZM11.8234 18.75H28.1762L19.9998 37.2833L11.8234 18.75ZM29.8841 18.75H37.4587L22.6702 35.1014L29.8841 18.75ZM10.1155 18.75L17.3294 35.1014L2.54094 18.75H10.1155ZM37.593 17.1875H29.8171L26.0671 10.9375H32.593L37.593 17.1875ZM7.40648 10.9375H13.9324L10.1824 17.1875H2.40648L7.40648 10.9375Z" fill="#FF7D23"/>
<path d="M21.5623 20.3125H15.7638C15.3323 20.3125 14.9826 20.6623 14.9826 21.0938C14.9826 21.5252 15.3323 21.875 15.7638 21.875H21.5623C21.9937 21.875 22.3435 21.5252 22.3435 21.0938C22.3435 20.6623 21.9937 20.3125 21.5623 20.3125ZM19.9998 6.25C20.4312 6.25 20.781 5.90023 20.781 5.46875V0.78125C20.781 0.349766 20.4312 0 19.9998 0C19.5683 0 19.2185 0.349766 19.2185 0.78125V5.46875C19.2185 5.90023 19.5683 6.25 19.9998 6.25ZM25.2398 6.02117L28.3648 2.89617C28.6698 2.59109 28.6698 2.09641 28.3648 1.79125C28.0597 1.48609 27.565 1.48617 27.2598 1.79125L24.1348 4.91625C23.8298 5.22133 23.8298 5.71602 24.1348 6.02117C24.4399 6.32625 24.9346 6.32633 25.2398 6.02117ZM14.7598 6.02117C15.0649 6.32625 15.5596 6.32625 15.8648 6.02117C16.1698 5.71609 16.1698 5.22141 15.8648 4.91625L12.7398 1.79125C12.4347 1.48617 11.94 1.48617 11.6348 1.79125C11.3297 2.09633 11.3298 2.59102 11.6348 2.89617L14.7598 6.02117Z" fill="#FF7D23"/>
</g>
<defs>
<clipPath id="clip0_1_511">
<rect width="40" height="40" fill="white"/>
</clipPath>
</defs>
</svg>
