<svg width="40" height="40" viewBox="0 0 40 40" fill="none" xmlns="http://www.w3.org/2000/svg">
<g clip-path="url(#clip0_1_504)">
<path d="M30.1461 20.2051C28.5084 20.2051 26.9614 20.739 25.6723 21.7491C25.553 21.8457 25.4766 21.9854 25.4593 22.1379C25.4421 22.2904 25.4855 22.4436 25.5802 22.5644C25.6749 22.6853 25.8132 22.764 25.9654 22.7838C26.1177 22.8035 26.2715 22.7627 26.3939 22.67C27.4752 21.8228 28.7727 21.375 30.1461 21.375C33.5047 21.375 36.2371 24.1074 36.2371 27.466C36.2371 30.8246 33.5047 33.557 30.1461 33.557C26.7875 33.557 24.0551 30.8246 24.0551 27.466C24.0543 26.3201 24.3778 25.1974 24.9882 24.2277C25.0697 24.0964 25.096 23.9382 25.0612 23.7876C25.0265 23.637 24.9336 23.5063 24.8028 23.424C24.672 23.3417 24.5139 23.3145 24.3631 23.3483C24.2124 23.3821 24.0811 23.4742 23.998 23.6045C23.2701 24.7609 22.8842 26.0996 22.885 27.466C22.885 31.4698 26.1423 34.7271 30.1461 34.7271C34.1499 34.7271 37.4072 31.4698 37.4072 27.466C37.4072 23.4624 34.1499 20.2051 30.1461 20.2051Z" fill="#FF7D23"/>
<path d="M34.7343 27.7538H30.731V23.7506C30.7285 23.5971 30.6658 23.4507 30.5564 23.343C30.4469 23.2354 30.2996 23.175 30.146 23.175C29.9925 23.175 29.8452 23.2354 29.7357 23.343C29.6263 23.4507 29.5635 23.5971 29.561 23.7506V28.3389C29.5611 28.4941 29.6227 28.6429 29.7324 28.7526C29.8421 28.8623 29.9909 28.9239 30.146 28.9239H34.7343C34.8883 28.9221 35.0354 28.8597 35.1437 28.7502C35.2519 28.6407 35.3126 28.4929 35.3126 28.3389C35.3126 28.1849 35.2519 28.0371 35.1437 27.9276C35.0354 27.818 34.8883 27.7556 34.7343 27.7538Z" fill="#FF7D23"/>
<path d="M35.7452 19.3623V9.21454C35.7452 7.6897 34.5046 6.44907 32.9797 6.44907H31.7241V5.00931C31.7241 3.72485 30.6792 2.67993 29.3948 2.67993C28.1103 2.67993 27.0654 3.72485 27.0654 5.00931V6.44899H24.0428V5.00931C24.0428 3.72485 22.9979 2.67993 21.7134 2.67993C20.429 2.67993 19.3841 3.72485 19.3841 5.00931V6.44899H16.3615V5.00931C16.3615 3.72485 15.3166 2.67993 14.0321 2.67993C12.7477 2.67993 11.7027 3.72485 11.7027 5.00931V6.44899H8.68016V5.00931C8.68016 3.72485 7.63523 2.67993 6.35078 2.67993C5.06633 2.67993 4.02117 3.72485 4.02117 5.00931V6.44899H2.76547C1.24062 6.44899 0 7.68954 0 9.21454V9.50313C0.00250867 9.65663 0.0652457 9.80299 0.174682 9.91065C0.284117 10.0183 0.431484 10.0787 0.585 10.0787C0.738516 10.0787 0.885883 10.0183 0.995318 9.91065C1.10475 9.80299 1.16749 9.65663 1.17 9.50313V9.21454C1.17 8.33485 1.88578 7.61907 2.76547 7.61907H4.02102V9.05876C4.02102 10.3432 5.06594 11.3881 6.35039 11.3881C7.63484 11.3881 8.67977 10.3432 8.67977 9.05868V7.61907H11.7023V9.05876C11.7023 10.3432 12.7473 11.3881 14.0317 11.3881C15.3162 11.3881 16.3611 10.3432 16.3611 9.05868V7.61907H19.3837V9.05876C19.3837 10.3432 20.4286 11.3881 21.713 11.3881C22.9975 11.3881 24.0424 10.3432 24.0424 9.05868V7.61907H27.065V9.05876C27.065 10.3432 28.1099 11.3881 29.3944 11.3881C30.6788 11.3881 31.7237 10.3432 31.7237 9.05868V7.61907H32.9793C33.8591 7.61907 34.5748 8.33485 34.5748 9.21454V13.3434H1.17V11.8431C1.16749 11.6896 1.10475 11.5433 0.995318 11.4356C0.885883 11.328 0.738516 11.2676 0.585 11.2676C0.431484 11.2676 0.284117 11.328 0.174682 11.4356C0.0652457 11.5433 0.00250867 11.6896 0 11.8431L0 32.0324C0 33.5573 1.24062 34.7979 2.76547 34.7979H23.5698C25.3152 36.3651 27.621 37.3201 30.146 37.3201C32.2544 37.3201 34.2657 36.6631 35.9627 35.4201C36.0855 35.3275 36.1669 35.1903 36.1893 35.0382C36.2117 34.8861 36.1733 34.7312 36.0825 34.6072C35.9916 34.4831 35.8556 34.3999 35.7038 34.3753C35.552 34.3508 35.3966 34.387 35.2713 34.4762C33.7762 35.5713 32.004 36.15 30.1459 36.15C25.3576 36.15 21.462 32.2544 21.462 27.4661C21.462 22.6778 25.3577 18.7822 30.1459 18.7822C31.0123 18.7822 31.8752 18.9118 32.7034 19.1666C32.7198 19.1716 32.736 19.1769 32.7524 19.182C36.2712 20.2916 38.8299 23.5855 38.8299 27.4661C38.8299 29.4682 38.132 31.422 36.8649 32.9676C36.8156 33.0269 36.7785 33.0954 36.7558 33.1691C36.733 33.2429 36.7251 33.3204 36.7324 33.3972C36.7398 33.474 36.7622 33.5486 36.7985 33.6167C36.8348 33.6848 36.8842 33.745 36.9438 33.7939C37.0035 33.8428 37.0722 33.8795 37.1461 33.9017C37.22 33.924 37.2975 33.9314 37.3743 33.9235C37.451 33.9157 37.5255 33.8927 37.5933 33.856C37.6612 33.8192 37.7211 33.7694 37.7696 33.7095C39.2079 31.9553 40 29.7381 40 27.4661C40 24.111 38.314 21.1426 35.7452 19.3623ZM7.50977 9.05868C7.50977 9.69798 6.98969 10.2181 6.35039 10.2181C5.71109 10.2181 5.19102 9.69806 5.19102 9.05868V5.00931C5.19102 4.37001 5.71102 3.84993 6.35039 3.84993C6.98969 3.84993 7.50977 4.36993 7.50977 5.00931V9.05868ZM15.1912 9.05868C15.1912 9.69798 14.6711 10.2181 14.0318 10.2181C13.3925 10.2181 12.8724 9.69806 12.8724 9.05868V5.00931C12.8724 4.37001 13.3925 3.84993 14.0318 3.84993C14.6711 3.84993 15.1912 4.36993 15.1912 5.00931V9.05868ZM22.8727 9.05868C22.8727 9.69798 22.3526 10.2181 21.7133 10.2181C21.074 10.2181 20.5539 9.69806 20.5539 9.05868V5.00931C20.5539 4.37001 21.074 3.84993 21.7133 3.84993C22.3526 3.84993 22.8727 4.36993 22.8727 5.00931V9.05868ZM30.5541 9.05868C30.5541 9.69798 30.034 10.2181 29.3947 10.2181C28.7554 10.2181 28.2353 9.69806 28.2353 9.05868V5.00931C28.2353 4.37001 28.7554 3.84993 29.3947 3.84993C30.034 3.84993 30.5541 4.36993 30.5541 5.00931V9.05868ZM15.0001 14.5134H20.7451V20.1049H15.0001V14.5134ZM6.915 33.6278H2.76547C1.88578 33.6278 1.17 32.912 1.17 32.0323V28.0363H6.91492L6.915 33.6278ZM6.915 26.8663H1.17V21.2749H6.91492L6.915 26.8663ZM6.915 20.1049H1.17V14.5134H6.91492L6.915 20.1049ZM8.085 21.2749H13.8299V26.8663H8.085V21.2749ZM13.8301 33.6278H8.08516V28.0364H13.8301V33.6278ZM13.8301 20.1049H8.08516V14.5134H13.8301V20.1049ZM15 21.2749H20.745V24.5109C20.5045 25.2753 20.3587 26.0664 20.3109 26.8664H15V21.2749ZM22.4535 33.6278H15.0001V28.0364H20.3085C20.4245 30.1014 21.1688 32.0341 22.4535 33.6278ZM21.9152 22.0549V21.2749H22.4862C22.2833 21.5255 22.0927 21.7858 21.9152 22.0549ZM27.6601 17.9301C26.1327 18.3285 24.7487 19.0855 23.6031 20.1049H21.9152V14.5134H27.6601V17.9301ZM34.5752 18.6617C34.0253 18.3851 33.4506 18.1608 32.8587 17.992L32.8209 17.9812C31.9505 17.736 31.0505 17.6118 30.1462 17.612C29.6999 17.6121 29.2608 17.6424 28.8302 17.7002V14.5133H34.5752V18.6617Z" fill="#FF7D23"/>
</g>
<defs>
<clipPath id="clip0_1_504">
<rect width="40" height="40" fill="white"/>
</clipPath>
</defs>
</svg>
