<svg width="40" height="40" viewBox="0 0 40 40" fill="none" xmlns="http://www.w3.org/2000/svg">
<g clip-path="url(#clip0_1_518)">
<path d="M38.4163 8.8259L20.2547 0.0582402C20.1753 0.019908 20.0882 0 20 0C19.9118 0 19.8247 0.019908 19.7453 0.0582402L1.58361 8.8259C1.48438 8.87381 1.40067 8.94873 1.34209 9.04206C1.28351 9.1354 1.25244 9.24336 1.25244 9.35355V30.6464C1.25244 30.7566 1.28351 30.8646 1.34209 30.9579C1.40067 31.0513 1.48438 31.1262 1.58361 31.1741L19.7452 39.9418C19.8246 39.9801 19.9117 40 19.9999 40C20.0882 40 20.1752 39.9801 20.2547 39.9418L38.4163 31.1741C38.5155 31.1262 38.5992 31.0513 38.6578 30.9579C38.7164 30.8646 38.7474 30.7566 38.7474 30.6464V9.35363C38.7474 9.24343 38.7164 9.13546 38.6578 9.04211C38.5992 8.94877 38.5155 8.87383 38.4163 8.8259ZM19.9999 1.2366L36.8138 9.35355L31.9398 11.7065C31.9089 11.6824 31.8757 11.6615 31.8406 11.644L15.141 3.5823L19.9999 1.2366ZM13.8177 4.2448L30.607 12.35L27.1684 14.01L10.386 5.90816L13.8177 4.2448ZM30.9999 13.4615V19.5979L27.7879 21.1486V15.0121L30.9999 13.4615ZM37.5756 30.2788L20.5859 38.4805V18.4889L24.6385 16.5325C24.7077 16.4991 24.7698 16.4523 24.821 16.3949C24.8722 16.3375 24.9116 16.2705 24.9369 16.1978C24.9623 16.1252 24.9731 16.0483 24.9687 15.9714C24.9643 15.8946 24.9448 15.8194 24.9113 15.7501C24.8779 15.6808 24.8311 15.6188 24.7737 15.5676C24.7163 15.5164 24.6493 15.477 24.5767 15.4516C24.504 15.4263 24.4271 15.4155 24.3502 15.4199C24.2734 15.4243 24.1982 15.4438 24.1289 15.4772L19.9999 17.4706L18.3753 16.6862C18.306 16.6527 18.2308 16.6332 18.1539 16.6288C18.0771 16.6244 18.0002 16.6352 17.9275 16.6605C17.8548 16.6859 17.7879 16.7253 17.7305 16.7765C17.673 16.8278 17.6263 16.8898 17.5928 16.9591C17.5594 17.0284 17.5399 17.1036 17.5355 17.1804C17.5311 17.2572 17.5419 17.3342 17.5672 17.4068C17.5926 17.4795 17.632 17.5464 17.6832 17.6039C17.7344 17.6613 17.7964 17.7081 17.8657 17.7415L19.414 18.4889V38.4805L2.42432 30.2786V10.2871L15.3618 16.5328C15.4411 16.5712 15.528 16.5912 15.6161 16.5912C15.7489 16.5914 15.8778 16.5464 15.9817 16.4637C16.0856 16.3811 16.1583 16.2655 16.188 16.1361C16.2176 16.0067 16.2024 15.871 16.1449 15.7514C16.0874 15.6317 15.9909 15.5351 15.8713 15.4775L3.18611 9.35355L9.00682 6.54355L26.6079 15.0407C26.6105 15.0443 26.6134 15.0475 26.616 15.051V22.0821C26.6161 22.1813 26.6413 22.2789 26.6893 22.3656C26.7373 22.4524 26.8066 22.5256 26.8906 22.5783C26.9746 22.631 27.0706 22.6616 27.1696 22.6671C27.2686 22.6726 27.3674 22.6529 27.4567 22.6098L31.8406 20.4935C31.9398 20.4456 32.0235 20.3706 32.0821 20.2773C32.1407 20.184 32.1717 20.076 32.1717 19.9658V12.8959L37.5756 10.2871V30.2788Z" fill="#FF7D23"/>
<path d="M7.25985 28.0062L4.59461 26.7196C4.45467 26.652 4.29362 26.6428 4.14688 26.694C4.00015 26.7452 3.87976 26.8525 3.81219 26.9925C3.74462 27.1324 3.73541 27.2935 3.78659 27.4402C3.83777 27.5869 3.94514 27.7073 4.08508 27.7749L6.75032 29.0615C6.82958 29.1 6.91652 29.12 7.00461 29.12C7.11489 29.12 7.22294 29.089 7.31636 29.0304C7.40977 28.9717 7.48474 28.888 7.53266 28.7886C7.56613 28.7194 7.58562 28.6442 7.59003 28.5673C7.59443 28.4905 7.58366 28.4136 7.55832 28.3409C7.53299 28.2683 7.49359 28.2013 7.44238 28.1439C7.39116 28.0865 7.32914 28.0397 7.25985 28.0062ZM9.71274 26.4096L4.59828 23.9405C4.45867 23.8755 4.29907 23.8681 4.15402 23.9198C4.00896 23.9715 3.8901 24.0783 3.82315 24.217C3.7562 24.3557 3.74654 24.5152 3.79626 24.6609C3.84598 24.8067 3.95108 24.927 4.08883 24.9959L9.20328 27.465C9.28256 27.5034 9.36949 27.5234 9.45758 27.5234C9.59039 27.5236 9.71933 27.4787 9.82326 27.396C9.9272 27.3133 9.99995 27.1978 10.0296 27.0683C10.0593 26.9389 10.0441 26.8032 9.98649 26.6835C9.92892 26.5638 9.83239 26.4672 9.71274 26.4096Z" fill="#FF7D23"/>
</g>
<defs>
<clipPath id="clip0_1_518">
<rect width="40" height="40" fill="white"/>
</clipPath>
</defs>
</svg>
