<svg width="40" height="38" viewBox="0 0 40 38" fill="none" xmlns="http://www.w3.org/2000/svg">
<path d="M32.5524 24.1574C32.4661 24.1574 32.3805 24.1404 32.3007 24.1073C32.2209 24.0743 32.1484 24.0259 32.0874 23.9648C32.0263 23.9037 31.9778 23.8312 31.9448 23.7514C31.9117 23.6716 31.8947 23.5861 31.8947 23.4997V23.2495C31.8947 22.4809 30.7981 21.727 29.6806 21.727H26.9921C26.9057 21.727 26.8202 21.71 26.7404 21.677C26.6607 21.644 26.5882 21.5956 26.5272 21.5345C26.4661 21.4735 26.4177 21.401 26.3847 21.3212C26.3517 21.2414 26.3347 21.1559 26.3348 21.0696C26.3347 20.9833 26.3517 20.8977 26.3847 20.818C26.4177 20.7382 26.4661 20.6657 26.5272 20.6046C26.5882 20.5435 26.6607 20.4951 26.7404 20.462C26.8202 20.429 26.9057 20.412 26.9921 20.412H29.6806C31.3499 20.412 33.2096 21.5776 33.2096 23.2495V23.4997C33.2096 23.5861 33.1927 23.6716 33.1597 23.7514C33.1267 23.8311 33.0783 23.9036 33.0173 23.9647C32.9562 24.0258 32.8838 24.0742 32.804 24.1073C32.7243 24.1403 32.6388 24.1574 32.5524 24.1574ZM29.9229 16.138C29.9048 16.138 29.8868 16.1376 29.8687 16.136C29.5065 16.106 29.2371 15.7888 29.2671 15.427L29.5959 11.4137C29.5933 9.14835 27.8416 7.26153 25.6884 7.26153H22.3211C20.1675 7.26153 18.4158 9.14835 18.4158 11.4674L18.7421 15.427C18.7721 15.7888 18.5027 16.106 18.1405 16.1361C17.7807 16.1658 17.4617 15.8968 17.4316 15.5345L17.1032 11.5213C17.1009 8.42338 19.4427 5.94653 22.3211 5.94653H25.688C28.5669 5.94653 30.9086 8.42338 30.9086 11.4674L30.5776 15.5345C30.5641 15.6989 30.4892 15.8522 30.368 15.964C30.2467 16.0757 30.0879 16.1378 29.9229 16.138Z" fill="#FF7D23"/>
<path d="M24.0048 22.3848C23.2253 22.3848 22.4397 22.2595 21.7327 22.0221C21.6509 21.9946 21.5752 21.9512 21.5101 21.8944C21.445 21.8377 21.3917 21.7687 21.3533 21.6913C21.3149 21.614 21.2921 21.5298 21.2862 21.4437C21.2803 21.3575 21.2914 21.271 21.3189 21.1891C21.4348 20.8453 21.8073 20.6609 22.1511 20.7749C22.7249 20.9675 23.3657 21.0698 24.0045 21.0698C25.4947 21.0698 26.8737 20.5303 27.6028 19.6617C28.5967 18.4765 29.2646 16.7849 29.2646 15.4531V12.8032C29.2646 12.4579 29.1938 12.2273 29.0546 12.1197C28.5592 11.7337 26.9846 12.1336 25.5955 12.4861C24.3257 12.8085 23.0134 13.1423 21.8242 13.1423C20.3445 13.1423 19.3482 12.6099 18.7519 12.2438C18.7474 12.3909 18.7447 12.5742 18.7447 12.8032V15.4531C18.7447 16.4125 19.1022 17.6063 19.7011 18.6461C19.7442 18.7209 19.7722 18.8035 19.7834 18.8891C19.7946 18.9747 19.7888 19.0616 19.7663 19.145C19.7439 19.2284 19.7053 19.3065 19.6526 19.3749C19.6 19.4433 19.5344 19.5007 19.4596 19.5438C19.3848 19.587 19.3022 19.6151 19.2166 19.6263C19.1309 19.6376 19.0439 19.6318 18.9605 19.6094C18.877 19.587 18.7989 19.5483 18.7304 19.4956C18.6619 19.4429 18.6046 19.3772 18.5615 19.3023C17.8422 18.0528 17.4294 16.6498 17.4294 15.4531V12.8032C17.4294 11.6851 17.4547 11.0388 17.975 10.7517C18.4388 10.4917 18.8779 10.7709 19.2646 11.0135C19.7787 11.3379 20.5556 11.8274 21.8242 11.8274C22.8487 11.8274 24.0805 11.514 25.2716 11.2114C27.1968 10.7227 28.8578 10.2998 29.862 11.0812C30.3383 11.4515 30.5796 12.0309 30.5796 12.8033V15.4531C30.5796 17.0965 29.8067 19.0795 28.6099 20.5067C27.6235 21.6827 25.9014 22.3848 24.0048 22.3848ZM30.005 30.529C29.8432 30.5289 29.6871 30.469 29.5667 30.361C29.4463 30.253 29.37 30.1043 29.3523 29.9435C29.3347 29.7827 29.3769 29.621 29.4711 29.4894C29.5652 29.3578 29.7045 29.2656 29.8624 29.2303L37.6654 27.4832C37.9551 27.4319 38.1817 27.2878 38.3329 27.0723C38.4076 26.9664 38.4606 26.8468 38.4887 26.7204C38.5169 26.5939 38.5197 26.4631 38.4969 26.3356C38.4667 26.1656 38.3927 26.0065 38.2822 25.8739C38.1716 25.7412 38.0284 25.6398 37.8667 25.5794C37.7857 25.5495 37.7113 25.5039 37.648 25.4452C37.5846 25.3865 37.5334 25.3159 37.4974 25.2374C37.4613 25.1589 37.4411 25.074 37.4379 24.9877C37.4346 24.9014 37.4485 24.8153 37.4786 24.7343C37.6049 24.3939 37.9845 24.2186 38.3232 24.3465C39.0884 24.6297 39.6516 25.3051 39.7923 26.1084C39.8988 26.7141 39.7625 27.3243 39.4093 27.8274C39.0564 28.3307 38.5282 28.666 37.9224 28.7724L30.1494 30.5133C30.1013 30.5238 30.0527 30.529 30.005 30.529Z" fill="#FF7D23"/>
<path d="M21.1093 34.2199H16.1144C16.0667 34.2199 16.0189 34.215 15.9719 34.2045L10.0545 32.8895C9.7001 32.8105 9.47626 32.459 9.55524 32.1051C9.63383 31.7506 9.98452 31.5294 10.3392 31.6054L16.1868 32.9049H21.1093C23.6752 32.9049 26.1922 32.0219 28.1964 30.4188C28.2141 30.4044 28.2325 30.3917 28.2513 30.3797L37.9833 24.1218C38.0147 24.1014 38.0478 24.0837 38.0823 24.0691C38.2017 24.0188 38.31 23.9454 38.4008 23.8531C38.4917 23.7607 38.5634 23.6513 38.6117 23.5311C38.7106 23.2865 38.708 23.0179 38.6052 22.776C38.3927 22.2748 37.8126 22.0405 37.3122 22.253L27.5429 26.2806C27.4636 26.3133 27.3781 26.3299 27.2923 26.3299H14.7995C14.6831 26.33 14.5688 26.2992 14.4682 26.2406C14.3676 26.182 14.2844 26.0977 14.2271 25.9964C14.1698 25.8951 14.1404 25.7804 14.1419 25.664C14.1435 25.5476 14.1759 25.4337 14.236 25.334L16.2085 22.0465C16.267 21.9492 16.3496 21.8687 16.4483 21.8128C16.5471 21.7569 16.6587 21.7275 16.7722 21.7275H19.4023C20.6255 21.7275 21.6564 20.8885 21.9491 19.7549H15.0147L6.04541 26.3329C5.75193 26.5477 5.34144 26.4831 5.12627 26.1914C5.02326 26.0507 4.98029 25.8748 5.0068 25.7024C5.03331 25.53 5.12712 25.3752 5.26766 25.2719L14.4109 18.5671C14.5236 18.4843 14.6597 18.4398 14.7995 18.4399H22.6895C22.8639 18.4399 23.0312 18.5092 23.1545 18.6326C23.2778 18.7559 23.3471 18.9232 23.3471 19.0976C23.3471 21.273 21.5773 23.0427 19.402 23.0427H17.1446L15.9609 25.0153H27.1622L36.805 21.0401C37.9671 20.5461 39.3205 21.0946 39.816 22.2624C40.056 22.8283 40.0616 23.4535 39.831 24.024C39.6083 24.5755 39.1906 25.0108 38.6519 25.2561L28.9914 31.4678C26.7588 33.2424 23.9615 34.2199 21.1093 34.2199Z" fill="#FF7D23"/>
<path d="M7.11421 37.9409C7.07895 37.9409 7.04375 37.9381 7.00893 37.9326C6.83684 37.9045 6.68288 37.8093 6.58071 37.668L0.124594 28.7119C0.0739176 28.642 0.0375896 28.5627 0.0177035 28.4786C-0.0021826 28.3945 -0.00523357 28.3073 0.00872643 28.2221C0.0367422 28.05 0.131854 27.896 0.273209 27.7939L4.53969 24.7182C4.835 24.5082 5.24549 24.5731 5.45768 24.8672L11.9138 33.8226C11.9643 33.8926 12.0006 33.972 12.0205 34.056C12.0404 34.14 12.0435 34.2272 12.0297 34.3124C12.0159 34.3977 11.9854 34.4794 11.9401 34.5529C11.8947 34.6264 11.8352 34.6902 11.7652 34.7407L7.4987 37.8171C7.38664 37.8976 7.25217 37.9409 7.11421 37.941V37.9409ZM1.57578 28.4763L7.26321 36.3652L10.4631 34.0581L4.77557 26.1693L1.57578 28.4763Z" fill="#FF7D23"/>
<path d="M8.88185 33.5626C8.88185 34.2887 8.29307 34.8775 7.56685 34.8775C6.84063 34.8775 6.25195 34.2887 6.25195 33.5625C6.25195 32.8361 6.84073 32.2472 7.56695 32.2472C8.29317 32.2472 8.88185 32.8362 8.88185 33.5626ZM24.0048 3.97419C23.9185 3.97426 23.8329 3.95731 23.7531 3.92431C23.6733 3.8913 23.6008 3.84289 23.5397 3.78184C23.4786 3.72079 23.4302 3.64829 23.3972 3.5685C23.3641 3.48871 23.3471 3.40319 23.3472 3.31683V0.68665C23.3471 0.60029 23.3641 0.51477 23.3972 0.43498C23.4302 0.355191 23.4786 0.282697 23.5397 0.221644C23.6008 0.160592 23.6733 0.112179 23.7531 0.0791748C23.8329 0.0461702 23.9185 0.0292212 24.0048 0.0292971C24.0912 0.0292338 24.1767 0.0461935 24.2564 0.0792062C24.3362 0.112219 24.4087 0.160637 24.4698 0.22169C24.5308 0.282744 24.5792 0.355235 24.6123 0.435017C24.6453 0.514799 24.6622 0.600308 24.6622 0.68665V3.31683C24.6622 3.40317 24.6453 3.48867 24.6122 3.56844C24.5792 3.64821 24.5308 3.72069 24.4697 3.78173C24.4087 3.84277 24.3362 3.89118 24.2564 3.92419C24.1767 3.9572 24.0912 3.97425 24.0048 3.97419ZM26.6347 3.97419C26.5484 3.97435 26.4629 3.95741 26.3831 3.92435C26.3034 3.89128 26.231 3.84275 26.1701 3.78155C26.109 3.72054 26.0605 3.64808 26.0274 3.56832C25.9943 3.48855 25.9773 3.40304 25.9773 3.31669C25.9773 3.23033 25.9943 3.14483 26.0274 3.06506C26.0605 2.98529 26.109 2.91283 26.1701 2.85182L28.471 0.550364C28.595 0.430333 28.7612 0.36386 28.9338 0.365284C29.1064 0.366708 29.2715 0.435916 29.3935 0.557977C29.5155 0.680038 29.5846 0.845169 29.586 1.01775C29.5873 1.19033 29.5208 1.35652 29.4007 1.48048L27.0997 3.78146C27.0387 3.84268 26.9663 3.89121 26.8864 3.92428C26.8066 3.95734 26.721 3.97427 26.6346 3.97409L26.6347 3.97419ZM21.3746 3.97419C21.2883 3.97435 21.2028 3.95741 21.1231 3.92435C21.0433 3.89128 20.9709 3.84275 20.91 3.78155L18.9375 1.80892C18.8764 1.74791 18.8279 1.67545 18.7948 1.5957C18.7618 1.51594 18.7447 1.43044 18.7447 1.3441C18.7447 1.25776 18.7618 1.17226 18.7948 1.0925C18.8279 1.01275 18.8764 0.94029 18.9375 0.879281C19.0608 0.756074 19.228 0.686867 19.4023 0.686867C19.5766 0.686867 19.7438 0.756074 19.8671 0.879281L21.8396 2.85182C21.9315 2.94381 21.994 3.06096 22.0193 3.18846C22.0446 3.31596 22.0315 3.4481 21.9818 3.56819C21.932 3.68827 21.8478 3.79092 21.7397 3.86316C21.6317 3.93541 21.5046 3.9741 21.3746 3.97419Z" fill="#FF7D23"/>
</svg>
