<svg width="11" height="6" viewBox="0 0 11 6" fill="none" xmlns="http://www.w3.org/2000/svg">
<path d="M5.06555 0.210115C5.35269 -0.0700329 5.81824 -0.070033 6.10538 0.210115L10.7846 4.77538C11.0718 5.05553 11.0718 5.50974 10.7846 5.78989C10.4975 6.07004 10.032 6.07004 9.74481 5.78989L5.06555 1.22462C4.77841 0.944471 4.77841 0.490262 5.06555 0.210115Z" fill="#949494"/>
<path d="M0.215357 5.78989C0.5025 6.07003 0.96805 6.07003 1.25519 5.78989L5.93445 1.22462C6.22159 0.944468 6.22159 0.490259 5.93445 0.210111C5.64731 -0.0700367 5.18176 -0.0700367 4.89462 0.210111L0.215357 4.77538C-0.0717852 5.05553 -0.0717852 5.50974 0.215357 5.78989Z" fill="#949494"/>
</svg>
