<svg width="5" height="11" viewBox="0 0 5 11" fill="none" xmlns="http://www.w3.org/2000/svg">
<path d="M0.175095 5.93445C-0.058361 5.64731 -0.058361 5.18176 0.175095 4.89462L3.97949 0.215357C4.21294 -0.0717857 4.59145 -0.0717856 4.82491 0.215357C5.05836 0.5025 5.05836 0.96805 4.82491 1.25519L1.02052 5.93445C0.787059 6.22159 0.408552 6.22159 0.175095 5.93445Z" fill="white"/>
<path d="M4.8249 10.7846C5.05836 10.4975 5.05836 10.0319 4.8249 9.74481L1.02051 5.06555C0.787056 4.77841 0.408549 4.77841 0.175092 5.06555C-0.0583641 5.35269 -0.0583641 5.81824 0.175092 6.10538L3.97948 10.7846C4.21294 11.0718 4.59145 11.0718 4.8249 10.7846Z" fill="white"/>
</svg>
