<svg width="5" height="11" viewBox="0 0 5 11" fill="none" xmlns="http://www.w3.org/2000/svg">
<path d="M4.8249 5.93445C5.05836 5.64731 5.05836 5.18176 4.8249 4.89462L1.02051 0.215357C0.787056 -0.0717857 0.408549 -0.0717856 0.175093 0.215357C-0.0583639 0.5025 -0.0583639 0.96805 0.175093 1.25519L3.97948 5.93445C4.21294 6.22159 4.59145 6.22159 4.8249 5.93445Z" fill="white"/>
<path d="M0.175096 10.7846C-0.0583611 10.4975 -0.0583611 10.0319 0.175096 9.74481L3.97949 5.06555C4.21294 4.77841 4.59145 4.77841 4.82491 5.06555C5.05836 5.35269 5.05836 5.81824 4.82491 6.10538L1.02052 10.7846C0.787059 11.0718 0.408552 11.0718 0.175096 10.7846Z" fill="white"/>
</svg>
