<svg width="20" height="20" viewBox="0 0 20 20" fill="none" xmlns="http://www.w3.org/2000/svg">
<g clip-path="url(#clip0_0_23)">
<path d="M13.8489 0C13.8954 0 13.9419 0 13.9911 0C14.1053 1.41044 13.5669 2.46432 12.9127 3.22751C12.2707 3.98542 11.3916 4.7205 9.9697 4.60897C9.87485 3.21872 10.4141 2.24301 11.0675 1.48158C11.6735 0.771967 12.7844 0.140517 13.8489 0Z" fill="white"/>
<path d="M18.1531 14.6805C18.1531 14.6945 18.1531 14.7068 18.1531 14.72C17.7535 15.9302 17.1835 16.9674 16.4879 17.9299C15.853 18.8038 15.0749 19.9797 13.6855 19.9797C12.485 19.9797 11.6875 19.2078 10.4571 19.1867C9.15558 19.1656 8.43982 19.8322 7.24981 19.9999C7.11369 19.9999 6.97756 19.9999 6.84407 19.9999C5.97023 19.8735 5.26501 19.1814 4.75124 18.5579C3.23629 16.7153 2.0656 14.3353 1.8478 11.2896C1.8478 10.991 1.8478 10.6933 1.8478 10.3947C1.94002 8.21493 2.99916 6.44266 4.40697 5.58374C5.14996 5.12706 6.17134 4.73801 7.30865 4.9119C7.79607 4.98742 8.29403 5.15429 8.73051 5.3194C9.14416 5.47836 9.66144 5.76027 10.1515 5.74534C10.4835 5.73568 10.8137 5.56267 11.1483 5.44059C12.1284 5.08667 13.0892 4.68092 14.3556 4.8715C15.8776 5.10159 16.9578 5.77783 17.6253 6.82118C16.3378 7.64057 15.3199 8.87536 15.4938 10.984C15.6484 12.8994 16.762 14.0201 18.1531 14.6805Z" fill="white"/>
</g>
<defs>
<clipPath id="clip0_0_23">
<rect width="20" height="20" fill="white"/>
</clipPath>
</defs>
</svg>
