<svg width="20" height="20" viewBox="0 0 20 20" fill="none" xmlns="http://www.w3.org/2000/svg">
<path d="M4.36531 0.319854C3.58286 -0.112621 2.66416 -0.102622 1.8867 0.326104L10.9987 8.73188L14.0598 5.6708L4.36531 0.319854Z" fill="#F8F8F8"/>
<path d="M0.975499 1.18604C0.753012 1.54976 0.625519 1.96599 0.625519 2.40722V17.5889C0.625519 18.0163 0.741762 18.4238 0.95175 18.78L10.115 9.61681L0.975499 1.18604Z" fill="#F8F8F8"/>
<path d="M18.1183 7.91072L15.1984 6.29956L11.9174 9.57938L15.9384 13.2879L18.1195 12.0842C18.9045 11.6493 19.3745 10.8693 19.3745 9.99685C19.3732 9.1244 18.9045 8.34444 18.1183 7.91072Z" fill="#F8F8F8"/>
<path d="M11.0337 10.4644L1.84544 19.6526C2.24417 19.8801 2.68165 20.0001 3.12162 20.0001C3.5466 20.0001 3.97407 19.8926 4.3653 19.6763L14.786 13.9254L11.0337 10.4644Z" fill="#F8F8F8"/>
</svg>
