<svg width="35" height="35" viewBox="0 0 35 35" fill="none" xmlns="http://www.w3.org/2000/svg">
<path fill-rule="evenodd" clip-rule="evenodd" d="M30.6251 11.6668C30.6251 10.8614 29.9721 10.2085 29.1667 10.2085H5.83339C5.02796 10.2085 4.37506 10.8614 4.37506 11.6668C4.37506 12.4722 5.02796 13.1252 5.83339 13.1252H29.1667C29.9721 13.1252 30.6251 12.4722 30.6251 11.6668ZM30.6251 17.5002C30.6251 16.6947 29.9721 16.0418 29.1667 16.0418H5.83339C5.02796 16.0418 4.37506 16.6947 4.37506 17.5002C4.37506 18.3056 5.02796 18.9585 5.83339 18.9585H29.1667C29.9721 18.9585 30.6251 18.3056 30.6251 17.5002ZM30.6251 23.3335C30.6251 22.5281 29.9721 21.8752 29.1667 21.8752H17.5001C16.6946 21.8752 16.0417 22.5281 16.0417 23.3335C16.0417 24.1389 16.6946 24.7918 17.5001 24.7918H29.1667C29.9721 24.7918 30.6251 24.1389 30.6251 23.3335Z" fill="#FF7D23"/>
</svg>
