<svg width="958" height="517" viewBox="0 0 958 517" fill="none" xmlns="http://www.w3.org/2000/svg">
<mask id="path-1-inside-1_0_20" fill="white">
<path d="M0 134C0 59.9939 59.9938 0 134 0H824C898.006 0 958 59.9938 958 134V383C958 457.006 898.006 517 824 517H134C59.9939 517 0 457.006 0 383V134Z"/>
</mask>
<path fill-rule="evenodd" clip-rule="evenodd" d="M956.978 400.121C957.137 398.8 957.278 397.474 957.4 396.143C957.797 391.815 958 387.431 958 383C958 387.434 957.756 391.815 957.281 396.131C957.135 397.461 956.966 398.784 956.776 400.101C956.585 401.427 956.372 402.746 956.137 404.058L956.445 404.088C956.641 402.771 956.819 401.449 956.978 400.121ZM949.631 431.142L948.162 430.475C947.632 431.699 947.082 432.914 946.513 434.119C945.943 435.326 945.353 436.523 944.744 437.709C940.796 445.398 936.043 452.652 930.586 459.374C929.744 460.412 928.885 461.437 928.01 462.449C927.133 463.462 926.24 464.463 925.331 465.45L929.453 468.409C930.256 467.344 931.044 466.269 931.817 465.181C932.589 464.095 933.346 462.997 934.088 461.888C938.983 454.576 943.216 446.784 946.703 438.598C947.225 437.372 947.731 436.137 948.219 434.893C948.707 433.651 949.178 432.401 949.631 431.142ZM910.07 489.374L905.508 483.019C903.35 484.576 901.14 486.073 898.881 487.506C891.875 491.954 884.397 495.795 876.533 498.949C874.061 499.941 871.55 500.864 869.004 501.718L873.973 512.666C876.412 511.573 878.816 510.414 881.181 509.19C884.158 507.649 887.074 506.006 889.924 504.265C894.788 501.293 899.46 498.037 903.915 494.519C904.964 493.691 906.001 492.849 907.025 491.992C908.053 491.134 909.067 490.261 910.07 489.374ZM845.715 521.886L844.327 507.627L842.635 507.791C840.562 508.063 838.474 508.289 836.371 508.47C832.297 508.821 828.171 509 824 509H809.625H801.625V525H809.625H816C818.685 525 821.352 524.925 824 524.778C828.67 524.519 833.279 524.034 837.818 523.334C840.475 522.924 843.108 522.441 845.715 521.886ZM769.708 525V509H761.708H732.958H724.958V525H732.958H761.708H769.708ZM693.042 525V509H685.042H656.292H648.292V525H656.292H685.042H693.042ZM616.375 525V509H608.375H579.625H571.625V525H579.625H608.375H616.375ZM539.708 525V509H531.708H502.958H494.958V525H502.958H531.708H539.708ZM463.042 525V509H455.042H426.292H418.292V525H426.292H455.042H463.042ZM386.375 525V509H378.375H349.625H341.625V525H349.625H378.375H386.375ZM309.708 525V509H301.708H272.958H264.958V525H272.958H301.708H309.708ZM233.042 525V509H225.042H196.292H188.292V525H196.292H225.042H233.042ZM156.375 525V509H148.375H134C131.913 509 129.838 508.949 127.777 508.849C125.716 508.749 123.668 508.599 121.636 508.402L113.673 507.627L112.145 523.329C114.632 523.713 117.139 524.032 119.667 524.286L120.086 524.326C120.77 524.393 121.456 524.455 122.144 524.512C125.767 524.811 129.428 524.975 133.121 524.997C133.414 524.999 133.707 525 134 525H148.375H156.375ZM82.7541 515.471L89.2734 501.106L81.9885 497.8C74.436 494.373 67.2795 490.221 60.6083 485.432L54.1094 480.766L44.9098 493.582C46.8779 495.169 48.8892 496.705 50.9417 498.188L51.2778 498.429C58.7933 503.824 66.8593 508.505 75.3763 512.37L76.0601 512.68C78.2623 513.666 80.4942 514.597 82.7541 515.471ZM23.4182 472.09L36.2337 462.891L31.5685 456.392C26.7795 449.72 22.6273 442.564 19.1998 435.012L15.8937 427.727L1.52848 434.246C2.40341 436.506 3.33451 438.738 4.32007 440.941L4.63 441.624C8.49528 450.141 13.1757 458.207 18.5707 465.722L18.8114 466.058C20.2942 468.11 21.8305 470.122 23.4182 472.09ZM-6.32854 404.855L9.3733 403.327L8.59839 395.364C8.43919 393.729 8.31123 392.083 8.21514 390.429C8.0724 387.972 8 385.495 8 383V367.438V359.438H-8V367.438V383C-8 384.76 -7.96795 386.512 -7.90439 388.257C-7.79845 391.165 -7.60496 394.052 -7.32637 396.914L-7.28628 397.326C-7.03284 399.856 -6.713 402.366 -6.32854 404.855ZM-8 323.562H8V315.562V284.438V276.438H-8V284.438V315.562V323.562ZM-8 240.563H8V232.563V201.438V193.438H-8V201.438V232.563V240.563ZM-8 157.563H8V149.563V134C8 129.829 8.17919 125.703 8.52982 121.629C8.7108 119.526 8.93744 117.438 9.2087 115.364L9.37329 113.673L-4.88613 112.285C-5.44108 114.892 -5.92452 117.525 -6.33429 120.182C-7.03415 124.721 -7.51911 129.33 -7.77844 134C-7.9255 136.648 -8 139.315 -8 142V149.563V157.563ZM4.33432 84.0274L15.2823 88.9959C16.1357 86.4499 17.0594 83.9395 18.0511 81.4672C21.2053 73.6032 25.0462 66.1254 29.4937 59.1189C30.9275 56.8602 32.4243 54.6504 33.9814 52.4925L27.6262 47.9305C26.7393 48.9326 25.8663 49.9474 25.0075 50.9746C24.151 51.9991 23.3086 53.0359 22.4807 54.0846C18.9633 58.5403 15.7072 63.2119 12.7355 68.0762C10.9945 70.926 9.35114 73.842 7.81006 76.8195C6.58619 79.1841 5.42683 81.5875 4.33432 84.0274ZM48.5912 28.5467L51.5504 32.6689C52.5374 31.7598 53.5378 30.8667 54.5513 29.9901C55.5632 29.1148 56.5881 28.2558 57.6257 27.4137C64.3483 21.9572 71.6025 17.2036 79.2911 13.2563C80.4775 12.6472 81.6742 12.0573 82.8808 11.487C84.0857 10.9175 85.3005 10.3676 86.5249 9.83757L85.8583 8.36857C84.5994 8.82218 83.3487 9.29306 82.1066 9.78095C80.8631 10.2694 79.6281 10.7749 78.402 11.2971C70.2157 14.7838 62.4237 19.0171 55.1117 23.9116C54.0029 24.6538 52.9052 25.4112 51.8187 26.1835C50.7314 26.9564 49.6555 27.7442 48.5912 28.5467ZM112.912 1.55509L112.942 1.86306C114.254 1.62828 115.573 1.41507 116.899 1.22378C118.216 1.03375 119.539 0.865347 120.869 0.718933C125.185 0.24361 129.566 0 134 0C129.569 0 125.185 0.202977 120.857 0.600142C119.526 0.722326 118.2 0.862888 116.879 1.02157C115.551 1.18117 114.229 1.35909 112.912 1.55509Z" fill="#FF7D23" mask="url(#path-1-inside-1_0_20)"/>
</svg>
