<svg width="42" height="14" viewBox="0 0 42 14" fill="none" xmlns="http://www.w3.org/2000/svg">
<path d="M15.9471 0.296128L10.4493 13.7353H6.86093L4.15734 3.01117C3.9909 2.34982 3.84866 2.10915 3.34958 1.82831C2.53206 1.37554 1.18732 0.950833 0 0.686295L0.0830977 0.296211H5.85637C6.59269 0.296211 7.25468 0.79932 7.42112 1.66663L8.85068 9.44495L12.3816 0.296211H15.9471V0.296128ZM30.0028 9.34554C30.0188 5.8005 25.2144 5.60756 25.249 4.02159C25.2583 3.53747 25.7062 3.0252 26.6871 2.89588C27.1742 2.82949 28.5147 2.78083 30.034 3.49537L30.6295 0.646799C29.812 0.34285 28.7613 0.0517578 27.4554 0.0517578C24.1012 0.0517578 21.7399 1.8794 21.72 4.49445C21.698 6.42823 23.4047 7.50739 24.692 8.15142C26.0138 8.81041 26.4558 9.23117 26.4511 9.82218C26.4425 10.7242 25.3965 11.1184 24.4208 11.1361C22.7141 11.1634 21.7243 10.6637 20.9337 10.2865L20.3193 13.233C21.1112 13.6055 22.5772 13.9288 24.0945 13.9479C27.6595 13.9477 29.9916 12.1396 30.0028 9.34554ZM38.8605 13.7354H42L39.2606 0.296211H36.3623C35.7111 0.296211 35.162 0.685288 34.9174 1.28134L29.828 13.7354H33.3902L34.0974 11.7283H38.4517L38.8605 13.7354ZM35.0736 8.97377L36.8607 3.92756L37.8888 8.97377H35.0736ZM20.797 0.296128L17.989 13.7353H14.5947L17.4033 0.296128H20.797Z" fill="#1A2ADF"/>
</svg>
