<svg width="75" height="14" viewBox="0 0 75 14" fill="none" xmlns="http://www.w3.org/2000/svg">
<path d="M66.8499 0.541686C67.0871 -0.180561 68.1196 -0.180562 68.3568 0.541685L69.5598 4.20561C69.6659 4.52861 69.97 4.74729 70.3132 4.74729H74.2063C74.9737 4.74729 75.2928 5.71907 74.6719 6.16544L71.5224 8.42987C71.2447 8.6295 71.1285 8.98334 71.2346 9.30634L72.4376 12.9703C72.6748 13.6925 71.8394 14.2931 71.2186 13.8467L68.069 11.5823C67.7913 11.3827 67.4154 11.3827 67.1377 11.5823L63.9882 13.8467C63.3673 14.2931 62.532 13.6925 62.7691 12.9703L63.9721 9.30634C64.0782 8.98334 63.962 8.6295 63.6843 8.42987L60.5348 6.16544C59.9139 5.71907 60.233 4.74729 61.0004 4.74729H64.8935C65.2367 4.74729 65.5409 4.52861 65.6469 4.20561L66.8499 0.541686Z" fill="#FF7D23"/>
<path d="M51.7983 0.541686C52.0354 -0.180561 53.068 -0.180562 53.3051 0.541685L54.5081 4.20561C54.6142 4.52861 54.9183 4.74729 55.2615 4.74729H59.1546C59.922 4.74729 60.2411 5.71907 59.6202 6.16544L56.4707 8.42987C56.193 8.6295 56.0769 8.98334 56.1829 9.30634L57.3859 12.9703C57.6231 13.6925 56.7877 14.2931 56.1669 13.8467L53.0173 11.5823C52.7397 11.3827 52.3637 11.3827 52.086 11.5823L48.9365 13.8467C48.3156 14.2931 47.4803 13.6925 47.7174 12.9703L48.9204 9.30634C49.0265 8.98334 48.9103 8.6295 48.6327 8.42987L45.4831 6.16544C44.8623 5.71907 45.1813 4.74729 45.9487 4.74729H49.8418C50.185 4.74729 50.4892 4.52861 50.5952 4.20561L51.7983 0.541686Z" fill="#FF7D23"/>
<path d="M36.7466 0.541686C36.9837 -0.180561 38.0163 -0.180562 38.2534 0.541685L39.4564 4.20561C39.5625 4.52861 39.8667 4.74729 40.2099 4.74729H44.1029C44.8703 4.74729 45.1894 5.71907 44.5686 6.16544L41.419 8.42987C41.1414 8.6295 41.0252 8.98334 41.1312 9.30634L42.3343 12.9703C42.5714 13.6925 41.736 14.2931 41.1152 13.8467L37.9656 11.5823C37.688 11.3827 37.312 11.3827 37.0344 11.5823L33.8848 13.8467C33.264 14.2931 32.4286 13.6925 32.6657 12.9703L33.8688 9.30634C33.9748 8.98334 33.8586 8.6295 33.581 8.42987L30.4314 6.16544C29.8106 5.71907 30.1297 4.74729 30.8971 4.74729H34.7901C35.1333 4.74729 35.4375 4.52861 35.5436 4.20561L36.7466 0.541686Z" fill="#FF7D23"/>
<path d="M21.6949 0.541686C21.932 -0.180561 22.9646 -0.180562 23.2017 0.541685L24.4048 4.20561C24.5108 4.52861 24.815 4.74729 25.1582 4.74729H29.0513C29.8187 4.74729 30.1377 5.71907 29.5169 6.16544L26.3673 8.42987C26.0897 8.6295 25.9735 8.98334 26.0796 9.30634L27.2826 12.9703C27.5197 13.6925 26.6844 14.2931 26.0635 13.8467L22.914 11.5823C22.6363 11.3827 22.2603 11.3827 21.9827 11.5823L18.8331 13.8467C18.2123 14.2931 17.3769 13.6925 17.6141 12.9703L18.8171 9.30634C18.9231 8.98334 18.807 8.6295 18.5293 8.42987L15.3798 6.16544C14.7589 5.71907 15.078 4.74729 15.8454 4.74729H19.7385C20.0817 4.74729 20.3858 4.52861 20.4919 4.20561L21.6949 0.541686Z" fill="#FF7D23"/>
<path d="M6.64322 0.541686C6.88036 -0.180561 7.91292 -0.180562 8.15006 0.541685L9.35309 4.20561C9.45914 4.52861 9.76331 4.74729 10.1065 4.74729H13.9996C14.767 4.74729 15.0861 5.71907 14.4652 6.16544L11.3157 8.42987C11.038 8.6295 10.9218 8.98334 11.0279 9.30634L12.2309 12.9703C12.468 13.6925 11.6327 14.2931 11.0118 13.8467L7.86228 11.5823C7.58463 11.3827 7.20866 11.3827 6.931 11.5823L3.78145 13.8467C3.16059 14.2931 2.32524 13.6925 2.56239 12.9703L3.76541 9.30634C3.87146 8.98334 3.75528 8.6295 3.47763 8.42987L0.328072 6.16544C-0.29278 5.71907 0.0262954 4.74729 0.793712 4.74729H4.68678C5.02997 4.74729 5.33414 4.52861 5.4402 4.20561L6.64322 0.541686Z" fill="#FF7D23"/>
</svg>
