<svg width="16" height="16" viewBox="0 0 16 16" fill="none" xmlns="http://www.w3.org/2000/svg">
<g clip-path="url(#clip0_0_60)">
<path d="M8.00005 0.847168C4.04984 0.847168 0.847107 4.0499 0.847107 8.00011C0.847107 9.5666 1.35139 11.0169 2.20795 12.1953L1.22442 14.7811L4.06235 13.9728C5.19073 14.7185 6.54442 15.153 8.00005 15.153C11.9503 15.153 15.153 11.9503 15.153 8.00011C15.153 4.0499 11.9503 0.847168 8.00005 0.847168ZM11.8018 10.9632L11.04 11.725C10.2389 12.5261 8.11449 11.6445 6.23148 9.76152C4.34668 7.87672 3.50442 5.7523 4.26621 4.95117L5.028 4.18938C5.30875 3.90863 5.78979 3.90863 6.10988 4.18938L7.23289 5.31239C7.63346 5.71296 7.47252 6.39427 6.95214 6.55343C6.59092 6.67503 6.35129 7.07559 6.47111 7.43681C6.67139 8.27728 7.75327 9.31983 8.55619 9.52011C8.91562 9.60058 9.31798 9.4003 9.43779 9.03907C9.59694 8.5187 10.28 8.35776 10.6806 8.75832L11.8018 9.88133C12.0826 10.1621 12.0826 10.6431 11.8018 10.9632Z" fill="white"/>
</g>
<defs>
<clipPath id="clip0_0_60">
<rect width="16" height="16" fill="white"/>
</clipPath>
</defs>
</svg>
